<svg viewBox="0 0 181 54" xmlns="http://www.w3.org/2000/svg" fill="black" height="55">
                    <path
                        d="M77.89 23.486h-2.567V34.73h2.567V23.486ZM87.26 28.782c-.448-.244-.937-.407-1.467-.53-.53-.121-1.018-.244-1.507-.366a4.067 4.067 0 0 1-1.182-.407c-.326-.163-.57-.53-.53-.897a1.07 1.07 0 0 1 .653-1.059c.366-.203.774-.285 1.222-.326.896-.04 1.752.408 2.281 1.1l1.711-1.507c-.448-.57-1.018-.978-1.67-1.181-1.263-.449-2.607-.49-3.911-.164-.53.123-1.019.326-1.426.652a3.736 3.736 0 0 0-1.018 1.1c-.245.49-.408 1.06-.367 1.59-.04.57.122 1.14.407 1.629.286.407.652.692 1.1.937.448.244.978.407 1.467.488.53.123 1.06.204 1.507.326.408.082.815.286 1.182.49.366.203.57.61.53 1.018 0 .244-.082.489-.204.692a1.126 1.126 0 0 1-.53.448 2.129 2.129 0 0 1-.652.245 3.52 3.52 0 0 1-2.322-.326 4.796 4.796 0 0 1-1.1-.937l-1.71 1.589c.488.57 1.14.977 1.873 1.222 1.345.448 2.811.489 4.155.204a5.572 5.572 0 0 0 1.549-.611 3.543 3.543 0 0 0 1.1-1.1c.285-.49.448-1.1.407-1.67.04-.612-.122-1.182-.408-1.712a4.253 4.253 0 0 0-1.14-.937ZM93.045 23.486h-2.567V34.73h2.567V23.486ZM99.237 19.29h-2.566v4.196h-2.363v2.16h2.362v5.458c0 .57.041 1.182.163 1.752.082.448.286.856.53 1.222.285.326.652.57 1.1.734a7.086 7.086 0 0 0 1.833.244c.367 0 .774-.04 1.141-.081.326-.041.652-.123.978-.245v-2.118c-.163.081-.367.122-.53.163-.285.04-.57.081-.855.081-.693 0-1.182-.203-1.426-.57a3.014 3.014 0 0 1-.367-1.467v-5.214h3.178v-2.16h-3.178V19.29ZM109.829 34.73h2.73V28.05h7.414v-2.404h-7.414v-3.951h7.944V19.29h-10.674v15.44ZM124.536 18.842c-.285-.244-.652-.407-1.019-.407-.366 0-.733.122-1.018.407-.53.489-.53 1.344-.041 1.874l.041.04c.285.286.652.408 1.018.408.367 0 .774-.122 1.019-.367.53-.488.57-1.303.081-1.833 0-.081-.04-.081-.081-.122ZM92.76 18.842c-.286-.244-.652-.407-1.019-.407-.367 0-.733.122-1.018.407-.53.489-.53 1.344-.041 1.874l.04.04c.286.286.653.408 1.02.408.366 0 .773-.122 1.018-.367.53-.488.57-1.303.081-1.833 0-.081-.04-.081-.081-.122ZM77.605 18.842c-.285-.244-.652-.407-1.019-.407-.366 0-.733.122-1.018.407-.53.489-.53 1.344-.041 1.874l.04.04c.286.286.653.408 1.02.408.366 0 .773-.122 1.018-.367.53-.488.57-1.344.081-1.873 0-.041-.04-.041-.081-.082ZM124.821 23.486h-2.566V34.73h2.566V23.486ZM136.839 24.546c-.326-.408-.774-.734-1.263-.978a5.161 5.161 0 0 0-1.915-.367 3.54 3.54 0 0 0-2.199.611 3.76 3.76 0 0 0-1.223 1.426l-.04.082h-.286v-1.834h-2.444V34.73h2.567V28.58c0-.408.04-.774.163-1.141.081-.367.285-.693.488-.978.245-.285.53-.53.856-.692.407-.163.856-.286 1.263-.245.448-.04.896.122 1.263.367.326.244.529.57.692.937.163.366.245.774.245 1.14.041.408.041.774.041 1.1v5.704h2.566v-7.13c0-.57-.081-1.14-.204-1.67 0-.57-.244-1.018-.57-1.425ZM142.583 19.29h-2.566v15.44h2.566V19.29ZM154.357 26.216c-.082-.367-.204-.774-.408-1.1a3.014 3.014 0 0 0-.814-.937c-.408-.326-.856-.53-1.345-.693a6.838 6.838 0 0 0-2.037-.285 8.11 8.11 0 0 0-2.607.407 5.205 5.205 0 0 0-2.078 1.263l1.304 1.304a4.713 4.713 0 0 1 1.304-.815c.57-.244 1.14-.326 1.751-.326a3.183 3.183 0 0 1 1.997.57c.529.408.855 1.06.814 1.752v.449h-.896c-.489 0-.978 0-1.548.04-.53.041-1.1.082-1.63.163-.529.082-1.018.245-1.507.408a4.761 4.761 0 0 0-1.263.692 3.072 3.072 0 0 0-.855 1.06c-.245.488-.326 1.018-.326 1.547 0 .49.122 1.019.326 1.426.244.408.529.774.896 1.019.407.285.815.489 1.304.61a6.38 6.38 0 0 0 1.507.205c.692 0 1.385-.163 2.037-.449a3.517 3.517 0 0 0 1.507-1.385l.041-.081h.326v1.589h2.281V28.17c0-.285 0-.57-.041-.937.082-.285.041-.652-.04-1.018Zm-3.015 6.192c-.489.489-1.263.774-2.322.774-.244 0-.53-.04-.774-.081-.245-.041-.489-.163-.693-.286-.203-.122-.366-.325-.529-.53-.163-.244-.204-.488-.204-.773 0-.448.163-.856.53-1.1.366-.245.733-.448 1.181-.57a8.7 8.7 0 0 1 1.426-.245c.489-.04.937-.04 1.344-.04h.734v.814a2.563 2.563 0 0 1-.693 2.037ZM166.171 24.546c-.326-.408-.774-.734-1.263-.978a5.161 5.161 0 0 0-1.915-.367 3.54 3.54 0 0 0-2.199.611 3.76 3.76 0 0 0-1.223 1.426l-.04.082h-.286v-1.834h-2.444V34.73h2.567V28.58c0-.408.04-.774.163-1.141.081-.367.285-.693.489-.978a2.78 2.78 0 0 1 .855-.692 3.478 3.478 0 0 1 1.263-.245c.448-.04.896.122 1.263.367.326.244.529.57.692.937.163.366.245.774.286 1.14.04.408.04.774.04 1.1v5.704h2.567v-7.13c0-.57-.082-1.14-.204-1.67-.081-.57-.326-1.018-.611-1.425ZM178.311 19.29v5.663h-.285l-.041-.082c-.163-.203-.326-.407-.529-.57-.245-.204-.489-.407-.774-.53-.326-.163-.693-.326-1.06-.407a5.364 5.364 0 0 0-1.385-.163c-.774 0-1.507.163-2.2.448-.651.285-1.222.733-1.711 1.263-.488.53-.855 1.181-1.1 1.874-.285.733-.407 1.548-.407 2.322s.122 1.589.367 2.322a5.412 5.412 0 0 0 1.1 1.874c.489.53 1.1.978 1.751 1.263a5.145 5.145 0 0 0 2.323.448c.774 0 1.507-.163 2.24-.448.693-.326 1.263-.815 1.63-1.466l.04-.082h.286v1.711H181V19.29h-2.689Zm-.122 11.163c-.163.448-.407.814-.733 1.181a3.878 3.878 0 0 1-1.141.815 3.63 3.63 0 0 1-4.074-.815c-.326-.326-.529-.733-.692-1.181a3.818 3.818 0 0 1 0-2.69 3.57 3.57 0 0 1 .692-1.14 3.337 3.337 0 0 1 2.607-1.1c.978 0 1.915.367 2.608 1.1.326.326.529.733.692 1.14.367.856.367 1.834.041 2.69ZM67.542 31.186 63.51 19.29h-3.178l5.867 15.44h2.444l6.07-15.44H71.78l-4.237 11.896ZM22.933.265c-4.196.815-7.74 3.504-10.51 7.822-4.237-.081-7.904.57-9.86 2.567-5.784 5.785-.407 26.032 2.73 33.12 2.322 5.255 6.804 8.759 12.63 9.859 1.303.244 2.647.366 3.992.366 13.158.082 23.873-10.51 23.954-23.669 1.019-1.507 1.711-3.218 2.078-5.01 1.14-5.785-1.385-12.14-7.13-17.885-5.744-5.744-12.099-8.31-17.884-7.17ZM2.563 26.501c-1.14-7.292-.61-12.425 1.386-14.462 1.344-1.345 3.992-1.915 7.251-1.956a32.886 32.886 0 0 0-1.14 2.404l-.53 1.222C7.534 18.394 4.56 25.442 3.5 31.634c-.325-1.63-.651-3.381-.936-5.133Zm34.914 19.066c-4.93 4.929-12.466 7.333-19.188 6.029-4.726-.896-8.433-3.504-10.592-7.496 1.507.611 3.096.896 4.725.855 6.967 0 16.255-3.951 22.04-6.395l1.222-.53a24.953 24.953 0 0 0 7.985-5.092c-.692 4.766-2.851 9.207-6.192 12.629Zm-2.607-9.33-1.223.49c-4.888 2.077-14.666 6.232-21.306 6.232-2.281 0-4.196-.489-5.418-1.71-4.808-4.808 1.71-20.166 4.522-26.725.203-.448.366-.856.53-1.222.447-1.06.936-2.119 1.547-3.137 7.17.407 16.255 2.81 21.348 5.051 4.644 2.037 7.7 5.989 8.677 11.163.204 1.059.326 2.159.326 3.259-1.915 2.648-4.97 4.888-9.003 6.6Zm11.08-11.366c-.122.49-.244 1.019-.407 1.467 0-.122-.04-.245-.04-.326-1.1-5.826-4.604-10.348-9.86-12.629-4.236-1.874-13.158-4.522-20.898-5.174C17.107 4.91 20 2.872 23.3 2.221c.774-.163 1.507-.204 2.281-.204 4.481 0 9.37 2.404 13.77 6.803 5.214 5.133 7.577 11 6.6 16.051Z">
                    </path>
                </svg>