
<svg style=""  id="Layer_1" class="abc" xmlns="http://www.w3.org/2000/svg" fill="green" xmlns:xlink="http://www.w3.org/1999/xlink" x="0px" y="0px" width="20px" height="20px" viewBox="0 0 20 20" enable-background="new 0 0 20 20" xml:space="preserve"><rect x="0" y="0" fill="none" width="20" height="20"></rect><rect x="0" y="0" fill="none" width="20" height="20"></rect><rect x="0" y="0" fill="none" width="20" height="20"></rect><rect x="0" y="0" fill="none" width="20" height="20"></rect><g><g><path d="M13.3,3.8c1.7,0,2.9,1.2,2.9,3c0,2.8-2.5,5.2-6,8.5L10,15.5l-0.2-0.2c-3.5-3.2-6-5.7-6-8.5c0-1.8,1.1-3,2.9-3 c0.7,0,1.2,0.2,1.8,0.7C9,5.1,9.6,5.1,10,5.1s1-0.1,1.6-0.6C12.1,4,12.7,3.8,13.3,3.8 M13.3,2c-1.1,0-2.1,0.4-3,1.2 c-0.1,0.1-0.2,0.1-0.3,0.1s-0.2,0-0.3-0.1C8.8,2.4,7.8,2,6.7,2C3.9,2,2,4,2,6.8c0,3.6,2.9,6.5,6.5,9.8L10,18l1.5-1.4 c3.6-3.3,6.5-6.2,6.5-9.8C18,4,16.1,2,13.3,2L13.3,2z"></path></g></g></svg>