

    <svg id="Layer_1" xmlns="http://www.w3.org/2000/svg" xmlns:xlink="http://www.w3.org/1999/xlink" x="0px" y="0px" width="10px" height="10px" fill="gray" viewBox="0 0 20 20" enable-background="new 0 0 20 20" xml:space="preserve"><rect x="0" y="0" fill="white" width="20" height="20"></rect><g><path d="M10,2c-4.4,0-8,3.6-8,8s3.6,8,8,8s8-3.6,8-8S14.4,2,10,2z M10,16.2c-3.4,0-6.2-2.8-6.2-6.2S6.6,3.8,10,3.8s6.2,2.8,6.2,6.2 S13.4,16.2,10,16.2z"></path><path d="M10.1,12.5c-0.8,0-1.5-0.4-1.7-1.1h2.4v-1.1H6.5c0,2.3,1.4,3.7,3.5,3.7c1.8,0,3.1-1.2,3.4-3l-1.7-0.1 C11.7,11.9,11,12.5,10.1,12.5z"></path><path d="M10.1,6C8,6,6.6,7.4,6.5,9.7h4.1V8.6H8.3c0.2-0.7,0.9-1.1,1.7-1.1c0.9,0,1.6,0.6,1.7,1.7L13.4,9C13.2,7.1,11.9,6,10.1,6z"></path></g></svg>

